<svg xmlns="http://www.w3.org/2000/svg" viewBox="0 0 416.25 416.5"><title>history</title><g id="Capa_2" data-name="Capa 2"><g id="Capa_1-2" data-name="Capa 1"><path d="M0,208.4H41.11c1.46,52.42,21.67,96,62.29,129.26,30.32,24.87,65.58,37.12,104.73,37.17,78.26.1,146.43-55.2,162.81-131.55A166.59,166.59,0,0,0,276.7,56.4C206.05,24.28,126.1,46.17,81.05,101.17l43,42.83-.74,1.23H.13V22.07c16.73,16.82,33.34,33.5,50.25,50.51C96.77,22,152.88-3.37,220.78.36,268.84,3,310.76,21.27,346.92,53c71.46,62.74,90.26,169.45,44.3,254.06C344.66,392.81,247,434.32,154,409.27,57.33,383.24-1.22,294.94,0,208.4Z"/><path d="M187.44,83.37H228.9v5.77c0,35.16.06,70.31-.08,105.47a11,11,0,0,0,3.65,8.68c17.54,17.32,34.93,34.79,51.93,51.78l-29.31,29.78L212,241.63c-7.41-7.43-14.91-14.78-22.19-22.34a8.92,8.92,0,0,1-2.6-5.46q-.21-64.21-.08-128.45A17.1,17.1,0,0,1,187.44,83.37Z"/></g></g></svg>