<?xml version="1.0" encoding="utf-8"?>
<!-- Generator: Adobe Illustrator 23.0.3, SVG Export Plug-In . SVG Version: 6.00 Build 0)  -->
<svg version="1.1" id="Capa_1" xmlns="http://www.w3.org/2000/svg" xmlns:xlink="http://www.w3.org/1999/xlink" x="0px" y="0px"
	 viewBox="0 0 405.9 437.5" style="enable-background:new 0 0 405.9 437.5;" xml:space="preserve">
<title>trash</title>
<g>
	<g id="Capa_1-2">
		<path d="M239.9,437.5l-21.2-21.8l72.7-72.4c-24.6-24.5-48.7-48.7-72.4-72.4l22.2-22.2l71.8,72l72.1-72.1l20.9,22.9v1
			c-1.3,1.1-2.6,2-3.7,3.2c-15.6,15.5-31.1,31.1-46.7,46.6c-6.8,6.8-13.7,13.6-21.2,21.1c1.5,1,2.9,2.1,4.2,3.3
			c21.2,21.2,42.4,42.4,63.6,63.6c1.2,1.1,2.5,2.1,3.7,3.2v1c-7.3,7-14.5,14-22.3,21.6l-70.8-70.9c-0.9,0.8-1.6,1.4-2.3,2.1
			c-22.6,22.6-45.2,45.2-67.8,67.8c-0.6,0.7-1.2,1.5-1.8,2.3H239.9z"/>
		<path d="M246,343.6c-10.7,10.7-20.4,20.5-30.2,30.2c-1,1-3.1,1.2-4.6,1.2c-49,0.1-98,0.2-147,0c-29.4-0.1-49-20.2-49-49.6
			c-0.1-80-0.1-160,0-239.9v-7.2H0V46.8h93.3c0-4.6,0-8.7,0-12.8c0.1-22.2,11.9-34,33.9-34c19.3,0,38.7,0,58,0
			c20.8,0,32.8,12,33.1,32.9c0.1,4.3,0,8.7,0,13.9h93.3v31.1h-15v182.3c-2.2-2-3.4-3-4.5-4.1c-7.7-7.6-15.2-15.4-23-22.9
			c-2.7-2.4-4.2-5.9-4-9.6c0.1-46.3,0.1-92.6,0.1-139v-6.2H46.8c-0.1,1.6-0.2,3.4-0.2,5.1c0,80.7,0,161.3,0,241.9
			c0,12.2,5.8,18.1,18,18.1c58.2,0,116.3,0,174.5,0L246,343.6z M186.8,31.6h-61.7v14.9h61.7V31.6z"/>
		<path d="M171.2,296.5h-30.8V125.4h30.8L171.2,296.5z"/>
		<path d="M78.1,125.3h30.6v171.2H78.1V125.3z"/>
		<path d="M203.2,125.3h30.7v5.3c0,25.2,0.1,50.3-0.1,75.5c-0.2,2.9-1.3,5.6-3.2,7.7c-8.7,9.2-17.8,18-27.3,27.6V125.3z"/>
	</g>
</g>
</svg>
